<svg width="57" height="79" viewBox="0 0 57 79" fill="none" xmlns="http://www.w3.org/2000/svg">
<path d="M52.0062 0.695679H4.9939C2.23247 0.695679 -0.00610352 2.93426 -0.00610352 5.69568V73.3043C-0.00610352 76.0658 2.23247 78.3043 4.9939 78.3043H52.0062C54.7677 78.3043 57.0062 76.0658 57.0062 73.3043V5.69568C57.0062 2.93425 54.7677 0.695679 52.0062 0.695679Z" fill="black"/>
<path d="M20.2827 60.8783C20.269 60.7401 20.2101 60.6327 20.1062 60.5562C20.0022 60.4797 19.8612 60.4414 19.683 60.4414C19.5619 60.4414 19.4596 60.4585 19.3762 60.4928C19.2928 60.5259 19.2289 60.5722 19.1843 60.6316C19.1409 60.691 19.1192 60.7584 19.1192 60.8338C19.1169 60.8966 19.1301 60.9515 19.1586 60.9983C19.1883 61.0451 19.2289 61.0857 19.2803 61.12C19.3317 61.1531 19.3911 61.1822 19.4585 61.2073C19.5259 61.2313 19.5978 61.2519 19.6744 61.269L19.9897 61.3444C20.1427 61.3787 20.2833 61.4244 20.4112 61.4815C20.5391 61.5386 20.6499 61.6089 20.7436 61.6923C20.8373 61.7757 20.9098 61.8739 20.9612 61.987C21.0138 62.1001 21.0406 62.2297 21.0418 62.376C21.0406 62.5907 20.9858 62.7769 20.8773 62.9346C20.7699 63.0911 20.6145 63.2127 20.4112 63.2996C20.209 63.3852 19.9651 63.4281 19.6795 63.4281C19.3962 63.4281 19.1495 63.3847 18.9393 63.2978C18.7302 63.211 18.5669 63.0825 18.4492 62.9123C18.3327 62.7409 18.2716 62.529 18.2659 62.2766H18.9838C18.9918 62.3942 19.0255 62.4925 19.0849 62.5713C19.1455 62.649 19.226 62.7078 19.3265 62.7478C19.4282 62.7866 19.543 62.8061 19.671 62.8061C19.7966 62.8061 19.9057 62.7878 19.9982 62.7512C20.0919 62.7147 20.1644 62.6638 20.2159 62.5987C20.2673 62.5336 20.293 62.4588 20.293 62.3743C20.293 62.2954 20.2695 62.2292 20.2227 62.1755C20.177 62.1218 20.1096 62.0761 20.0205 62.0384C19.9326 62.0007 19.8246 61.9664 19.6967 61.9356L19.3145 61.8396C19.0187 61.7677 18.7851 61.6551 18.6137 61.5021C18.4424 61.349 18.3573 61.1428 18.3584 60.8835C18.3573 60.671 18.4138 60.4854 18.528 60.3266C18.6434 60.1678 18.8016 60.0439 19.0027 59.9548C19.2037 59.8657 19.4322 59.8211 19.6881 59.8211C19.9485 59.8211 20.1759 59.8657 20.3701 59.9548C20.5654 60.0439 20.7173 60.1678 20.8259 60.3266C20.9344 60.4854 20.9904 60.6693 20.9938 60.8783H20.2827Z" fill="white"/>
<path d="M24.6372 61.0977H23.8866C23.8729 61.0006 23.8449 60.9143 23.8027 60.8389C23.7604 60.7624 23.7062 60.6973 23.6399 60.6436C23.5736 60.5899 23.4971 60.5488 23.4103 60.5202C23.3246 60.4917 23.2315 60.4774 23.131 60.4774C22.9493 60.4774 22.7911 60.5225 22.6563 60.6128C22.5215 60.7019 22.417 60.8321 22.3428 61.0034C22.2685 61.1736 22.2314 61.3804 22.2314 61.6237C22.2314 61.8739 22.2685 62.0841 22.3428 62.2543C22.4182 62.4245 22.5233 62.553 22.6581 62.6398C22.7928 62.7267 22.9488 62.7701 23.1258 62.7701C23.2252 62.7701 23.3172 62.7569 23.4017 62.7307C23.4874 62.7044 23.5634 62.6661 23.6296 62.6159C23.6959 62.5645 23.7507 62.5022 23.7941 62.4291C23.8387 62.356 23.8695 62.2726 23.8866 62.1789L24.6372 62.1823C24.6177 62.3434 24.5692 62.4988 24.4915 62.6484C24.415 62.7969 24.3116 62.93 24.1814 63.0477C24.0523 63.1642 23.8981 63.2567 23.7187 63.3253C23.5405 63.3927 23.3389 63.4264 23.1138 63.4264C22.8008 63.4264 22.521 63.3555 22.2742 63.2139C22.0286 63.0722 21.8344 62.8672 21.6916 62.5987C21.55 62.3303 21.4791 62.0053 21.4791 61.6237C21.4791 61.241 21.5511 60.9155 21.6951 60.647C21.839 60.3786 22.0343 60.1741 22.2811 60.0336C22.5278 59.8919 22.8054 59.8211 23.1138 59.8211C23.3172 59.8211 23.5057 59.8497 23.6793 59.9068C23.8541 59.9639 24.0089 60.0473 24.1437 60.157C24.2785 60.2655 24.3881 60.3986 24.4727 60.5562C24.5583 60.7139 24.6132 60.8943 24.6372 61.0977Z" fill="white"/>
<path d="M25.7081 63.3784H24.913L26.1245 59.8691H27.0806L28.2904 63.3784H27.4953L26.6163 60.671H26.5889L25.7081 63.3784ZM25.6584 61.999H27.5364V62.5782H25.6584V61.999Z" fill="white"/>
<path d="M31.648 59.8691V63.3784H31.0072L29.4804 61.1696H29.4547V63.3784H28.7128V59.8691H29.3639L30.8787 62.0761H30.9095V59.8691H31.648Z" fill="white"/>
<path d="M33.2442 60.4808V59.8691H36.1263V60.4808H35.0519V63.3784H34.3186V60.4808H33.2442Z" fill="white"/>
<path d="M39.6656 61.6237C39.6656 62.0064 39.5931 62.332 39.448 62.6004C39.304 62.8689 39.1076 63.0739 38.8585 63.2156C38.6106 63.3561 38.3319 63.4264 38.0223 63.4264C37.7105 63.4264 37.4306 63.3555 37.1827 63.2139C36.9348 63.0722 36.7389 62.8672 36.595 62.5987C36.451 62.3303 36.3791 62.0053 36.3791 61.6237C36.3791 61.241 36.451 60.9155 36.595 60.647C36.7389 60.3786 36.9348 60.1741 37.1827 60.0336C37.4306 59.8919 37.7105 59.8211 38.0223 59.8211C38.3319 59.8211 38.6106 59.8919 38.8585 60.0336C39.1076 60.1741 39.304 60.3786 39.448 60.647C39.5931 60.9155 39.6656 61.241 39.6656 61.6237ZM38.9134 61.6237C38.9134 61.3758 38.8762 61.1668 38.802 60.9966C38.7289 60.8264 38.6255 60.6973 38.4918 60.6093C38.3582 60.5214 38.2017 60.4774 38.0223 60.4774C37.843 60.4774 37.6865 60.5214 37.5528 60.6093C37.4192 60.6973 37.3152 60.8264 37.241 60.9966C37.1679 61.1668 37.1313 61.3758 37.1313 61.6237C37.1313 61.8716 37.1679 62.0807 37.241 62.2509C37.3152 62.4211 37.4192 62.5502 37.5528 62.6381C37.6865 62.7261 37.843 62.7701 38.0223 62.7701C38.2017 62.7701 38.3582 62.7261 38.4918 62.6381C38.6255 62.5502 38.7289 62.4211 38.802 62.2509C38.8762 62.0807 38.9134 61.8716 38.9134 61.6237Z" fill="white"/>
<path d="M43.659 61.0034C43.635 60.92 43.6013 60.8464 43.5579 60.7824C43.5145 60.7173 43.4613 60.6624 43.3985 60.6179C43.3368 60.5722 43.266 60.5374 43.186 60.5134C43.1072 60.4894 43.0198 60.4774 42.9239 60.4774C42.7445 60.4774 42.5869 60.5219 42.4509 60.611C42.3161 60.7001 42.211 60.8298 42.1356 61C42.0602 61.1691 42.0225 61.3758 42.0225 61.6203C42.0225 61.8648 42.0597 62.0727 42.1339 62.244C42.2082 62.4154 42.3133 62.5462 42.4492 62.6364C42.5852 62.7255 42.7457 62.7701 42.9307 62.7701C43.0986 62.7701 43.242 62.7404 43.3608 62.681C43.4807 62.6204 43.5721 62.5353 43.635 62.4257C43.6989 62.316 43.7309 62.1863 43.7309 62.0367L43.8817 62.059H42.977V61.5004H44.4455V61.9424C44.4455 62.2509 44.3803 62.5159 44.2501 62.7375C44.1199 62.958 43.9405 63.1282 43.7121 63.2481C43.4836 63.367 43.222 63.4264 42.9273 63.4264C42.5983 63.4264 42.3093 63.3538 42.0602 63.2087C41.8112 63.0625 41.617 62.8552 41.4776 62.5867C41.3394 62.3171 41.2703 61.9973 41.2703 61.6272C41.2703 61.3427 41.3114 61.0891 41.3937 60.8664C41.4771 60.6425 41.5936 60.4528 41.7432 60.2975C41.8929 60.1421 42.0671 60.0239 42.2659 59.9428C42.4646 59.8617 42.68 59.8211 42.9119 59.8211C43.1106 59.8211 43.2957 59.8502 43.467 59.9085C43.6384 59.9656 43.7903 60.0467 43.9228 60.1518C44.0565 60.2569 44.1656 60.382 44.2501 60.5271C44.3347 60.671 44.3889 60.8298 44.4129 61.0034H43.659Z" fill="white"/>
<path d="M45.0028 63.3784V59.8691H47.3674V60.4808H45.7447V61.317H47.2458V61.9287H45.7447V62.7666H47.3743V63.3784H45.0028Z" fill="white"/>
<path d="M47.8237 60.4808V59.8691H50.7058V60.4808H49.6314V63.3784H48.898V60.4808H47.8237Z" fill="white"/>
<path d="M14.4241 58.6849L13.6452 59.5027C14.7464 59.9352 15.6161 60.7218 16.2469 61.7109C18.1006 64.617 17.4591 68.4915 14.7545 70.6148C12.6686 72.2524 9.86629 72.4282 7.56084 71.1238C7.27705 70.9632 6.98873 70.7724 6.75168 70.5505C7.4762 70.782 8.22707 71.0002 8.99118 71.0566C12.2825 71.2993 15.3778 68.7598 14.6017 65.2773C14.0152 62.6452 11.2748 61.6064 8.84812 61.4372C8.34144 61.4019 7.83294 61.4089 7.32496 61.422L6.68677 60.0353L9.66624 58.6849H14.4241ZM10.2699 59.4768H9.06258L9.66624 60.0745L10.2699 59.4768Z" fill="white"/>
<path d="M13.6709 66.2662L13.5286 66.1037C11.6572 64.1006 9.11629 64.1172 6.67997 65.0069C6.17095 65.1928 5.68361 65.427 5.18693 65.6419L4.00012 64.7282L5.13902 62.7874C5.45228 62.7331 5.76748 62.6819 6.08346 62.6447C8.35723 62.376 11.2708 62.482 12.8658 64.3648C13.3072 64.8857 13.6596 65.5696 13.671 66.2662H13.6709ZM5.88185 63.6961L4.89535 63.9425L5.51069 64.3071L5.88185 63.6961Z" fill="white"/>
<path d="M13.5154 68.0967L13.1119 67.8188C10.5929 66.2105 7.73076 67.8183 5.87292 69.6527L4.60913 69.0878L4.92433 67.1066L4.94835 67.0657C5.80632 66.5629 6.71363 66.1202 7.67364 65.8445C9.04881 65.4495 10.5408 65.4017 11.8236 66.1084C12.5805 66.5254 13.2695 67.2565 13.5154 68.0969V68.0967ZM5.72518 68.2907L5.88188 67.5906L5.0252 68.1229C5.02196 68.1572 5.02442 68.144 5.04454 68.1485C5.2703 68.1998 5.49761 68.2481 5.72505 68.2905L5.72518 68.2907Z" fill="white"/>
<path d="M19.172 70.1828V65.3828H21.0658C21.4283 65.3828 21.7376 65.4476 21.9939 65.5773C22.2517 65.7054 22.4478 65.8875 22.5822 66.1234C22.7181 66.3578 22.7861 66.6335 22.7861 66.9507C22.7861 67.2695 22.7173 67.5437 22.5798 67.7734C22.4423 68.0015 22.2431 68.1765 21.9822 68.2984C21.7228 68.4203 21.4087 68.4812 21.04 68.4812H19.772V67.6656H20.8759C21.0697 67.6656 21.2306 67.639 21.3587 67.5859C21.4868 67.5328 21.5822 67.4531 21.6447 67.3468C21.7087 67.2406 21.7408 67.1086 21.7408 66.9507C21.7408 66.7914 21.7087 66.657 21.6447 66.5476C21.5822 66.4382 21.4861 66.3554 21.3564 66.2992C21.2283 66.2414 21.0665 66.2125 20.8712 66.2125H20.1868V70.1828H19.172ZM21.7642 67.9984L22.9572 70.1828H21.8368L20.6697 67.9984H21.7642Z" fill="white"/>
<path d="M23.5033 70.1828V65.3828H26.7376V66.2195H24.5181V67.3632H26.5712V68.2H24.5181V69.3461H26.747V70.1828H23.5033Z" fill="white"/>
<path d="M28.625 70.1828L27.2515 65.3828H28.3601L29.1546 68.7179H29.1945L30.0711 65.3828H31.0203L31.8945 68.725H31.9367L32.7312 65.3828H33.8398L32.4664 70.1828H31.4773L30.5632 67.0445H30.5257L29.614 70.1828H28.625Z" fill="white"/>
<path d="M34.7269 70.1828H33.6394L35.2965 65.3828H36.6043L38.259 70.1828H37.1715L35.9691 66.4796H35.9316L34.7269 70.1828ZM34.659 68.2961H37.2277V69.0882H34.659V68.2961Z" fill="white"/>
<path d="M38.8367 70.1828V65.3828H40.7305C41.093 65.3828 41.4023 65.4476 41.6586 65.5773C41.9164 65.7054 42.1125 65.8875 42.2469 66.1234C42.3828 66.3578 42.4508 66.6335 42.4508 66.9507C42.4508 67.2695 42.382 67.5437 42.2445 67.7734C42.107 68.0015 41.9078 68.1765 41.6469 68.2984C41.3875 68.4203 41.0734 68.4812 40.7047 68.4812H39.4367V67.6656H40.5406C40.7344 67.6656 40.8953 67.639 41.0234 67.5859C41.1516 67.5328 41.2469 67.4531 41.3094 67.3468C41.3734 67.2406 41.4055 67.1086 41.4055 66.9507C41.4055 66.7914 41.3734 66.657 41.3094 66.5476C41.2469 66.4382 41.1508 66.3554 41.0211 66.2992C40.893 66.2414 40.7312 66.2125 40.5359 66.2125H39.8516V70.1828H38.8367ZM41.4289 67.9984L42.6219 70.1828H41.5016L40.3344 67.9984H41.4289Z" fill="white"/>
<path d="M44.8695 70.1828H43.168V65.3828H44.8836C45.3664 65.3828 45.782 65.4789 46.1305 65.671C46.4789 65.8617 46.7469 66.1359 46.9344 66.4937C47.1234 66.8515 47.218 67.2796 47.218 67.7781C47.218 68.2781 47.1234 68.7078 46.9344 69.0672C46.7469 69.4265 46.4774 69.7023 46.1258 69.8945C45.7758 70.0867 45.357 70.1828 44.8695 70.1828ZM44.1828 69.3132H44.8273C45.1273 69.3132 45.3797 69.2601 45.5844 69.1539C45.7906 69.0461 45.9453 68.8796 46.0484 68.6546C46.1531 68.4281 46.2055 68.1359 46.2055 67.7781C46.2055 67.4234 46.1531 67.1336 46.0484 66.9086C45.9453 66.6835 45.7914 66.5179 45.5867 66.4117C45.382 66.3054 45.1297 66.2523 44.8297 66.2523H44.1828V69.3132Z" fill="white"/>
<path d="M50.5737 66.7632C50.5549 66.5742 50.4744 66.4273 50.3322 66.3226C50.1901 66.2179 49.9971 66.1656 49.7533 66.1656C49.5877 66.1656 49.4479 66.189 49.3338 66.2359C49.2197 66.2812 49.1322 66.3445 49.0713 66.4257C49.0119 66.507 48.9822 66.5992 48.9822 66.7023C48.9791 66.7882 48.9971 66.8632 49.0361 66.9273C49.0768 66.9914 49.1322 67.0468 49.2026 67.0937C49.2729 67.139 49.3541 67.1789 49.4463 67.2132C49.5385 67.2461 49.6369 67.2742 49.7416 67.2976L50.1729 67.4007C50.3822 67.4476 50.5744 67.5101 50.7494 67.5882C50.9244 67.6664 51.076 67.7625 51.2041 67.8765C51.3322 67.9906 51.4315 68.125 51.5018 68.2796C51.5737 68.4343 51.6104 68.6117 51.6119 68.8117C51.6104 69.1054 51.5354 69.3601 51.3869 69.5757C51.2401 69.7898 51.0276 69.9562 50.7494 70.075C50.4729 70.1922 50.1393 70.2507 49.7486 70.2507C49.3611 70.2507 49.0236 70.1914 48.7361 70.0726C48.4502 69.9539 48.2268 69.7781 48.0658 69.5453C47.9065 69.3109 47.8229 69.0211 47.8151 68.6757H48.7971C48.808 68.8367 48.8541 68.9711 48.9354 69.0789C49.0182 69.1851 49.1283 69.2656 49.2658 69.3203C49.4049 69.3734 49.5619 69.4 49.7369 69.4C49.9088 69.4 50.058 69.375 50.1846 69.325C50.3127 69.275 50.4119 69.2054 50.4822 69.1164C50.5526 69.0273 50.5877 68.925 50.5877 68.8093C50.5877 68.7015 50.5557 68.6109 50.4916 68.5375C50.4291 68.464 50.3369 68.4015 50.2151 68.35C50.0947 68.2984 49.9471 68.2515 49.7721 68.2093L49.2494 68.0781C48.8447 67.9796 48.5252 67.8257 48.2908 67.6164C48.0565 67.407 47.94 67.125 47.9416 66.7703C47.94 66.4796 48.0174 66.2257 48.1736 66.0085C48.3315 65.7914 48.5479 65.6218 48.8229 65.5C49.0979 65.3781 49.4104 65.3171 49.7604 65.3171C50.1166 65.3171 50.4276 65.3781 50.6932 65.5C50.9604 65.6218 51.1682 65.7914 51.3166 66.0085C51.4651 66.2257 51.5416 66.4773 51.5463 66.7632H50.5737Z" fill="white"/>
<g clip-path="url(#clip0_2680_2693)">
<path d="M53.0001 4.85284H4.00012V52.8528H53.0001V4.85284Z" fill="white"/>
</g>
<defs>
<clipPath id="clip0_2680_2693">
<rect id="qr-slot" x="4.00012" y="4.85284" width="49" height="48" rx="2" fill="white"/>
</clipPath>
</defs>
</svg>
